<svg width="72" height="72" viewBox="0 0 72 72" fill="none" xmlns="http://www.w3.org/2000/svg">
<path d="M63 15C59.67 13.95 56.01 13.5 52.5 13.5C46.65 13.5 40.35 14.7 36 18C31.65 14.7 25.35 13.5 19.5 13.5C13.65 13.5 7.35 14.7 3 18V61.95C3 62.7 3.75 63.45 4.5 63.45C4.8 63.45 4.95 63.3 5.25 63.3C9.3 61.35 15.15 60 19.5 60C25.35 60 31.65 61.2 36 64.5C40.05 61.95 47.4 60 52.5 60C57.45 60 62.55 60.9 66.75 63.15C67.05 63.3 67.2 63.3 67.5 63.3C68.25 63.3 69 62.55 69 61.8V18C67.2 16.65 65.25 15.75 63 15ZM63 55.5C59.7 54.45 56.1 54 52.5 54C47.4 54 40.05 55.95 36 58.5V24C40.05 21.45 47.4 19.5 52.5 19.5C56.1 19.5 59.7 19.95 63 21V55.5Z" fill="#F5F5F5"/>
<path d="M52.5 31.5C55.14 31.5 57.69 31.77 60 32.28V27.72C57.63 27.27 55.08 27 52.5 27C47.4 27 42.78 27.87 39 29.49V34.47C42.39 32.55 47.1 31.5 52.5 31.5ZM39 37.47V42.45C42.39 40.53 47.1 39.48 52.5 39.48C55.14 39.48 57.69 39.75 60 40.26V35.7C57.63 35.25 55.08 34.98 52.5 34.98C47.4 34.98 42.78 35.88 39 37.47ZM52.5 42.99C47.4 42.99 42.78 43.86 39 45.48V50.46C42.39 48.54 47.1 47.49 52.5 47.49C55.14 47.49 57.69 47.76 60 48.27V43.71C57.63 43.23 55.08 42.99 52.5 42.99Z" fill="#F5F5F5"/>
</svg>
